<?xml version="1.0" encoding="UTF-8" standalone="no"?>
<svg xmlns="http://www.w3.org/2000/svg" xmlns:xlink="http://www.w3.org/1999/xlink" xmlns:serif="http://www.serif.com/" width="100%" height="100%" viewBox="0 0 80 80" version="1.1" xml:space="preserve" style="fill-rule:evenodd;clip-rule:evenodd;stroke-linejoin:round;stroke-miterlimit:2;">
    <g transform="matrix(1,0,0,1,-193.959,-2325.22)">
        <g transform="matrix(1.28761,0,0,1.28761,173.255,2322.67)">
            <g transform="matrix(1,0,0,1,14.0944,0)">
                <path d="M28.1,61.9C26.3,61.6 24.5,61.1 22.8,60.5L23.6,58.6C23.8,58.1 23.6,57.4 23,57.2C22.5,57 21.8,57.2 21.6,57.8L20.8,59.7C17.9,58.4 15.3,56.6 13.1,54.5L14.5,53.1C14.9,52.7 14.9,52 14.5,51.6C14.1,51.2 13.4,51.2 13,51.6L11.6,53C9.5,50.7 7.7,48.1 6.4,45.3L8.3,44.5C8.8,44.3 9.1,43.6 8.9,43.1C8.7,42.6 8,42.3 7.5,42.5L5.6,43.3C5,41.6 4.5,39.8 4.2,38C4.1,37.4 3.5,37 3,37.1C2.4,37.2 2,37.8 2.1,38.3C4.2,51.4 14.6,61.8 27.8,64L28,64C28.5,64 29,63.6 29.1,63.1C29.1,62.5 28.7,62 28.1,61.9Z" style="fill:rgb(255,102,0);fill-rule:nonzero;"></path>
                <path d="M2.9,29L3.1,29C3.6,29 4.1,28.6 4.2,28.1C4.5,26.3 5,24.5 5.6,22.8L7.5,23.6C7.6,23.7 7.8,23.7 7.9,23.7C8.3,23.7 8.7,23.5 8.9,23C9.1,22.5 8.9,21.8 8.3,21.6L6.4,20.8C7.7,17.9 9.5,15.3 11.6,13.1L13,14.5C13.2,14.7 13.5,14.8 13.8,14.8C14.1,14.8 14.3,14.7 14.6,14.5C15,14.1 15,13.4 14.6,13L13.2,11.6C15.5,9.5 18.1,7.7 20.9,6.4L21.7,8.3C21.9,8.7 22.3,9 22.7,9C22.8,9 23,9 23.1,8.9C23.6,8.7 23.9,8 23.7,7.5L22.9,5.6C24.6,5 26.4,4.5 28.2,4.2C28.8,4.1 29.2,3.5 29.1,3C29,2.4 28.4,2 27.9,2.1C14.6,4.2 4.2,14.6 2,27.8C1.9,28.4 2.3,28.9 2.9,29Z" style="fill:rgb(255,102,0);fill-rule:nonzero;"></path>
                <path d="M63.1,37C62.5,36.9 62,37.3 61.9,37.9C61.6,39.7 61.1,41.5 60.5,43.2L58.6,42.4C58.1,42.2 57.4,42.4 57.2,43C57,43.5 57.2,44.2 57.8,44.4L59.7,45.2C58.4,48.1 56.6,50.7 54.5,52.9L53,51.5C52.6,51.1 51.9,51.1 51.5,51.5C51.1,51.9 51.1,52.6 51.5,53L52.9,54.4C50.6,56.5 48,58.3 45.2,59.6L44.4,57.7C44.2,57.2 43.5,56.9 43,57.1C42.5,57.3 42.2,58 42.4,58.5L43.2,60.4C41.5,61 39.7,61.5 37.9,61.8C37.3,61.9 36.9,62.5 37,63C37.1,63.5 37.5,63.9 38.1,63.9L38.3,63.9C51.4,61.8 61.8,51.4 64,38.2C64.1,37.6 63.7,37.1 63.1,37Z" style="fill:rgb(255,102,0);fill-rule:nonzero;"></path>
                <path d="M37.9,4.1C39.7,4.4 41.5,4.9 43.2,5.5L42.4,7.4C42.2,7.9 42.4,8.6 43,8.8C43.1,8.9 43.3,8.9 43.4,8.9C43.8,8.9 44.2,8.7 44.4,8.2L45.2,6.3C48.1,7.6 50.7,9.4 52.9,11.5L51.5,13C51.1,13.4 51.1,14.1 51.5,14.5C51.7,14.7 52,14.8 52.3,14.8C52.6,14.8 52.8,14.7 53.1,14.5L54.5,13.1C56.6,15.4 58.4,18 59.7,20.8L57.8,21.6C57.3,21.8 57,22.5 57.2,23C57.4,23.4 57.8,23.7 58.2,23.7C58.3,23.7 58.5,23.7 58.6,23.6L60.5,22.8C61.1,24.5 61.6,26.3 61.9,28.1C62,28.6 62.4,29 63,29L63.2,29C63.8,28.9 64.2,28.3 64.1,27.8C61.8,14.6 51.4,4.2 38.2,2C37.6,1.9 37.1,2.3 37,2.9C36.9,3.5 37.3,4 37.9,4.1Z" style="fill:rgb(255,102,0);fill-rule:nonzero;"></path>
                <path d="M23.5,40.8L20.5,45.5L25.2,42.5C24.6,41.9 24.1,41.4 23.5,40.8Z" style="fill-rule:nonzero;"></path>
                <path d="M33,37.6C35.5,37.6 37.6,35.5 37.6,33C37.6,30.5 35.5,28.4 33,28.4C30.5,28.4 28.4,30.5 28.4,33C28.4,35.5 30.5,37.6 33,37.6Z" style="fill-rule:nonzero;"></path>
                <path d="M21.3,36.6C20.9,35.5 20.8,34.3 20.8,33C20.8,31.7 21,30.5 21.3,29.4L5.1,33L21.3,36.6Z" style="fill-rule:nonzero;"></path>
                <path d="M25.2,23.5L20.5,20.5L23.5,25.2C24.1,24.6 24.6,24 25.2,23.5Z" style="fill-rule:nonzero;"></path>
                <path d="M29.4,44.7L33,60.9L36.6,44.7C35.5,45 34.3,45.2 33,45.2C31.8,45.2 30.5,45 29.4,44.7Z" style="fill-rule:nonzero;"></path>
                <path d="M44.7,29.4C45.1,30.5 45.2,31.7 45.2,33C45.2,34.3 45,35.5 44.7,36.6L60.9,33L44.7,29.4Z" style="fill-rule:nonzero;"></path>
                <path d="M36.6,21.3L33,5.1L29.4,21.3C30.5,21 31.7,20.8 33,20.8C34.2,20.8 35.5,21 36.6,21.3Z" style="fill-rule:nonzero;"></path>
                <path d="M33,43.1C38.6,43.1 43.1,38.6 43.1,33C43.1,27.4 38.6,22.9 33,22.9C27.4,22.9 22.9,27.4 22.9,33C22.9,38.6 27.4,43.1 33,43.1ZM33,26.3C36.7,26.3 39.7,29.3 39.7,33C39.7,36.7 36.7,39.7 33,39.7C29.3,39.7 26.3,36.7 26.3,33C26.3,29.3 29.3,26.3 33,26.3Z" style="fill-rule:nonzero;"></path>
                <path d="M45.4,20.6L40.7,23.6C41.3,24.1 41.9,24.7 42.4,25.3L45.4,20.6Z" style="fill-rule:nonzero;"></path>
                <path d="M42.4,40.8C41.9,41.4 41.3,42 40.7,42.5L45.4,45.5L42.4,40.8Z" style="fill-rule:nonzero;"></path>
            </g>
        </g>
    </g>
</svg>
