<?xml version="1.0" encoding="UTF-8" standalone="no"?>
<svg xmlns="http://www.w3.org/2000/svg" xmlns:xlink="http://www.w3.org/1999/xlink" xmlns:serif="http://www.serif.com/" width="100%" height="100%" viewBox="0 0 42 34" version="1.1" xml:space="preserve" style="fill-rule:evenodd;clip-rule:evenodd;stroke-linejoin:round;stroke-miterlimit:2;">
    <g transform="matrix(1,0,0,1,-787.777,-2749.37)">
        <g transform="matrix(0.12,0,0,0.116206,0,0)">
            <g transform="matrix(7.24652,0,0,7.4831,6564.81,23623.7)">
                <path d="M48.161,9.98C48.13,9.836 48.065,9.697 47.915,9.579C46.547,8.496 43.313,4.129 41.189,4.853C38.226,5.864 21.937,27.294 18.326,32.017C17.065,30.215 6.562,15.808 6.035,16.131C4.23,17.234 2.367,18.177 0.643,19.422C0.45,19.562 0.351,19.743 0.322,19.928C0.086,20.112 -0.065,20.417 0.027,20.79C1.507,26.8 6.539,31.533 10.133,36.267C12.22,39.016 15.13,45.936 19.053,42.669C19.12,42.613 19.16,42.549 19.204,42.484C19.974,42.17 20.633,41.559 21.323,40.815C24.313,37.595 26.945,34.057 29.719,30.645C32.684,26.997 35.973,23.582 39.23,20.214C42.074,17.273 44.6,13.379 47.952,11.079C48.37,10.79 48.371,10.313 48.161,9.98ZM9.444,20.585C8.504,19.754 7.53,18.946 6.513,18.168C7.609,18.847 8.576,19.664 9.444,20.585ZM4.937,21.275C4.736,21.085 4.511,21.046 4.306,21.093C4.177,20.733 4.07,20.371 4.012,20.012C3.974,19.78 3.86,19.609 3.712,19.494C3.772,19.449 3.828,19.404 3.89,19.36C3.901,19.527 3.961,19.694 4.088,19.846C6.359,22.533 8.918,24.931 11.227,27.582C11.492,27.887 11.751,28.195 12.011,28.501C9.558,26.177 7.395,23.586 4.937,21.275ZM14.139,39.215C14.368,39.479 14.596,39.744 14.83,40.003C15.101,40.373 15.375,40.743 15.658,41.108C15.659,41.112 15.66,41.117 15.661,41.12C15.106,40.62 14.596,39.914 14.139,39.215ZM14.874,33.356C15.547,33.95 16.251,34.516 16.991,34.97C16.973,35.088 16.982,35.203 17.011,35.314C17.02,35.363 17.04,35.412 17.059,35.46C16.352,34.74 15.615,34.047 14.874,33.356ZM18.147,41.077C18.145,41.07 18.146,41.063 18.143,41.058C18.119,41.003 18.091,40.954 18.067,40.9C18.753,40.892 19.651,40.383 20.637,39.59C19.766,40.412 18.905,40.991 18.147,41.077ZM41.512,6.773C40.872,7.052 40.339,7.482 39.862,7.987C40.334,7.313 40.834,6.795 41.512,6.773ZM25.677,27.511C25.295,27.912 24.611,28.519 23.786,29.263C24.515,28.534 25.271,27.841 25.95,27.149C28.165,24.897 29.88,22.135 31.668,19.495C33.696,17.505 35.797,15.611 37.735,13.519C39.01,12.141 39.795,9.932 41.286,8.755C40.292,9.803 39.507,11.317 38.837,12.772C37.774,13.892 36.834,15.158 35.848,16.384C32.717,20.282 29.116,23.902 25.677,27.511ZM38.774,18.191C37.197,20.102 35.427,21.842 33.744,23.658C35.014,22.066 36.275,20.466 37.433,18.78C37.524,18.647 37.634,18.46 37.755,18.231C38.162,17.824 38.569,17.418 38.968,17.004C40.124,15.8 41.498,14.477 42.341,12.937C43.014,12.032 43.751,11.134 44.584,10.594C43.377,13.333 40.45,16.162 38.774,18.191Z" style="fill:rgb(1,255,0);fill-rule:nonzero;"></path>
            </g>
        </g>
    </g>
</svg>
