<?xml version="1.0" encoding="UTF-8" standalone="no"?>
<svg xmlns="http://www.w3.org/2000/svg" xmlns:xlink="http://www.w3.org/1999/xlink" xmlns:serif="http://www.serif.com/" width="100%" height="100%" viewBox="0 0 849 77" version="1.1" xml:space="preserve" style="fill-rule:evenodd;clip-rule:evenodd;stroke-linejoin:round;stroke-miterlimit:2;">
    <g transform="matrix(1,0,0,1,-286.742,-1524.67)">
        <g transform="matrix(0.12,0,0,0.0674049,0,0)">
            <g transform="matrix(1,0,0,1.724,0,381.861)">
                <g transform="matrix(8.33333,0,0,8.60539,0,0)">
                    <path d="M1135.38,1505.34L1132.71,1506.81L710.982,1575.14L287.602,1506.51L286.742,1505.34L289.586,1504.72L710.982,1557.08L1132.39,1504.74L1135.38,1505.34Z" style="fill:rgb(255,102,0);"></path>
                </g>
                <g transform="matrix(4.33291,0,0,4.47436,2844.55,6252.01)">
                    <path d="M1135.38,1505.34L1132.71,1506.81L710.982,1575.14L287.602,1506.51L286.742,1505.34L289.586,1504.72L710.982,1557.08L1132.39,1504.74L1135.38,1505.34Z" style="fill:rgb(255,102,0);"></path>
                </g>
                <g transform="matrix(2.99115,0,0,3.0888,3798.63,8251.11)">
                    <path d="M1135.38,1505.34L1132.71,1506.81L710.982,1575.14L287.602,1506.51L286.742,1505.34L289.586,1504.72L710.982,1557.08L1132.39,1504.74L1135.38,1505.34Z" style="fill:rgb(255,102,0);"></path>
                </g>
            </g>
        </g>
    </g>
</svg>
