<?xml version="1.0" encoding="UTF-8"?> <svg xmlns="http://www.w3.org/2000/svg" xmlns:xlink="http://www.w3.org/1999/xlink" xmlns:xodm="http://www.corel.com/coreldraw/odm/2003" xml:space="preserve" width="100%" height="100%" version="1.1" style="shape-rendering:geometricPrecision; text-rendering:geometricPrecision; image-rendering:optimizeQuality; fill-rule:evenodd; clip-rule:evenodd" viewBox="0 0 30302.29 10525.57"> <defs> <style type="text/css"> .fil2 {fill:#3E3F42} .fil1 {fill:#FCFCFC} .fil0 {fill:#FF6600} .fil5 {fill:white} .fil4 {fill:#FCFCFC;fill-rule:nonzero} .fil3 {fill:#FF6600;fill-rule:nonzero} </style> </defs> <g id="Capa_x0020_1"> <metadata id="CorelCorpID_0Corel-Layer"></metadata> <g id="_3120203797696"> <path class="fil0" d="M18802.81 9903.37c290.42,-260.14 501.06,-398.77 991.16,-413.9l10324.28 -318.17c259.91,-7.99 226.53,-261.82 12.24,-261.82l-19802.56 0c-225.62,0 -231.63,251.17 6.92,261.82l7534.75 338.85c354.67,15.89 464.25,179.84 352.24,409.73l-234.83 482.11c-67.45,138.48 80.69,159.85 183.5,67.76l632.3 -566.38z"></path> <circle class="fil1" cx="4470.4" cy="4546.28" r="4272.05"></circle> <g> <path class="fil2" d="M4839.68 6676.96c37.97,387.7 114.27,741.42 274.4,1125.38 13.48,32.32 43.36,36.5 50.7,7.73 133.28,-522.99 418.15,-1114.81 712.79,-1616.68 23.57,-40.11 36.89,-37.37 67.16,-42.24 122.02,-19.72 235.37,-64.4 313.48,-104.84 171.36,-88.76 -82.2,13.16 -316.4,-247.04 -37.2,-41.38 -44.6,-84.98 -16.23,-78.03 120.29,57.69 408.85,187.13 499.99,235.45 37.5,19.95 49.88,33.43 35.7,118.39l-109.81 652.9c-4.33,25.93 -26.87,51.31 17.74,77.15 337.2,195.18 585.5,284.81 720.6,389.64 130.37,101.03 191.31,208.55 261.39,391.95l-0.01 0.02c-750.74,711.56 -1764.74,1148.12 -2880.77,1148.12 -823.23,0 -1590.86,-237.66 -2238.37,-647.86 -12.91,-8.19 -25.79,-16.45 -38.6,-24.76 -16.08,-10.44 -32.11,-20.95 -48.02,-31.6 -12.51,-8.36 -24.95,-16.81 -37.35,-25.3 -14.78,-10.12 -29.5,-20.31 -44.14,-30.61 -13.21,-9.29 -26.35,-18.69 -39.46,-28.12 -13.67,-9.86 -27.3,-19.78 -40.84,-29.78 -13.38,-9.89 -26.67,-19.85 -39.93,-29.9 -13.16,-9.96 -26.25,-20.01 -39.28,-30.12 -13.22,-10.27 -26.39,-20.61 -39.48,-31.02 -12.5,-9.95 -24.94,-19.97 -37.33,-30.06 -13.57,-11.05 -27.07,-22.15 -40.49,-33.37 -11.7,-9.77 -23.31,-19.63 -34.9,-29.52 -15.34,-13.1 -30.59,-26.3 -45.74,-39.62 -9.49,-8.35 -18.97,-16.75 -28.39,-25.2 -16.15,-14.45 -32.19,-29.02 -48.11,-43.73 -8.27,-7.64 -16.51,-15.33 -24.73,-23.04 -16.95,-15.9 -33.78,-31.94 -50.46,-48.12l-18.84 -18.39c-17.88,-17.56 -35.61,-35.28 -53.17,-53.16l-12.51 -12.8c-18.94,-19.46 -37.72,-39.07 -56.29,-58.88l-0.89 -0.95c-7.31,-7.81 -14.58,-15.62 -21.84,-23.49 -14.5,-15.72 -28.88,-31.56 -43.14,-47.49 -7.12,-7.96 -14.22,-15.97 -21.3,-23.99 -41.38,-46.97 -81.69,-94.87 -120.96,-143.67l-4.31 -5.36c-18.8,-23.43 -37.34,-47.08 -55.64,-70.92l-4.33 -5.63c-18.8,-24.57 -37.34,-49.37 -55.59,-74.37l-0.63 -0.87c-18.81,-25.77 -37.34,-51.76 -55.58,-77.97l-0.17 -0.26c-60.76,-87.38 -118.28,-177.15 -172.4,-269.19l-1.12 -1.88 1348.77 -352.08c36.82,-9.6 117.15,68.11 289.84,97.04 35.32,5.91 15.3,-13.72 7.49,-17.27 -120.67,-54.55 -213.29,-118.54 -203.84,-152.2l272.49 -967.26c163.72,-28.21 359.21,-49.97 452.53,-47.52 32.17,0.87 44.08,-1.5 43.67,29.24 -0.4,29.09 -14.17,85.29 -21.52,118.72 -16.78,76.36 -36.97,119.88 -87.88,57.45 -56.75,-69.6 -222.84,-22.07 -306.47,-91.98 14.81,16.63 51.24,46.28 83.63,69.91 93.03,67.99 190.91,129.92 292.08,186.32 58.63,30.96 80.83,5.52 80.76,-38.61l-1.1 -396.8c-0.16,-77.46 -46.03,-132.89 -69.22,-148.02 -97.17,-63.62 -177.52,-120.7 -231.85,-227.18 -41.46,-81.22 -8.16,-67.27 -107.94,-66.19 -548.96,6.06 -1069.11,-21.47 -1524.64,-86.27 -133.29,-18.96 -133.59,5.4 -171.85,-126.51 -214.18,-738.56 418.24,-1966.99 1171.74,-1211.18 139.42,139.84 298.67,230.64 381.2,-155.05 260.74,-1219.09 724.55,-2130.25 2281.39,-2281.96 1521.06,-148.2 2180.29,967.58 1977.54,1813.67 -18.62,77.74 -36.8,155.23 -46.67,204.44 -34.95,174.32 30.14,163.16 111.96,3.13 47.63,-93.23 52.61,-136.36 165.92,-179.03 114.71,-43.21 269.06,-39.93 362.27,-10.97 280.35,87.13 402.92,379.05 517.37,720.97 60.86,181.78 93.06,156.89 -67.63,247.34 -399.31,224.76 -926.53,420.03 -1522.53,579.68 -78.1,20.94 -62.87,3.87 -82.71,80.64 -53.93,208.39 -121.58,363.25 -172.06,558.42 -135.09,522.13 -211.35,954 -359.68,1478.5 -30.11,106.66 -69.76,246.17 -327.21,297.01 -29.32,5.75 -46.89,42.95 -53.9,71.96l-151.82 620.81c-11.19,46.19 -52.11,41 -58.8,0.32l-112.17 -673.23c-1.26,-8.2 -11.66,-15.05 -19.7,-15.46l-118.4 -5.66c-15.83,-0.79 -37.05,7.9 -37.46,27.96zm-2646.24 1385.28c-16.08,-10.44 -32.09,-20.95 -48.02,-31.6l48.02 31.6zm290.22 -5036.61c157.41,-744.97 388.2,-1179.36 846.09,-1599.34 151.58,-139.2 178.23,-154.18 -24.98,-36.27 -606.72,351.48 -975.44,890.72 -1205.46,1638.36 -20.65,67.08 127.38,159.55 201.33,227.73 64.31,59.27 132.89,6.85 183.02,-230.48zm1276.63 865.71c59.03,-102.62 -141.02,10.18 -181.45,28.06 -25.07,11.03 -41.07,-9.84 -22.94,-33.57 45,-58.88 184.76,-195.56 204.08,-214.49 439.5,-430.45 980.17,-384.9 1413.14,-119.88 125.02,76.52 166.8,104.44 284.4,107.52 186.34,4.88 306.78,4.25 455.92,130.21 53.28,45 94.45,89.98 -15.6,75.91 -475.75,-60.91 -682.5,183.22 -602.28,487.7 62.07,235.58 126.19,394.64 184.35,539.98 31.22,78.03 56.19,170.33 -71.18,162.16l-240.57 -15.45c-71.49,-4.57 -97.1,-21.76 -95.84,-95.14 0.83,-49.09 -69.12,-53.84 -97.76,-45.52 -154.9,45 -254.98,182.56 -307,294.46 -20.31,43.69 -10.52,77.01 18.61,31.93 47.78,-73.97 197.54,-219.7 258.04,-233.66 56.23,-12.99 57.88,15.23 60.08,50.69 2.43,39.49 55.32,90.96 106.7,96.92 195.78,22.72 299.37,4.85 244.45,233.83 -6.07,25.37 -11.34,52.64 -53.12,52.64 -106.26,0 -295.2,9.55 -365.89,27.9 -101.14,26.27 -137.63,88.53 -5.22,77.41 110.19,-9.3 218.74,0.72 323.35,24.92 113.26,26.17 48.63,137.78 -61.34,162.38 -192.56,43.11 -133.91,147.01 28.69,258.69 117.93,81.03 155.44,117.21 138.66,253.35 -25.07,202.96 -257.83,250.74 -501.4,212.5 -32.08,-5.05 -41.63,-33.89 -41.07,-55.81l-0.94 -119.33c-0.87,-108.15 -4.81,-100.42 -112.02,-115.31 -339.33,-47.07 -730.06,-171.14 -1052.6,-285.2 -205.82,-72.83 -358.49,-159.7 -361.25,-375.28l-5.83 -449.45c-0.08,-63.22 -36.19,-98.13 -65.44,-110.2 -419.49,-173.01 -461.66,-802.26 -88.98,-819.77 138.65,-6.45 216.68,151.19 278.72,390.42 43.12,166.09 48.71,237.03 108.62,256.02 59.04,18.68 53.6,-36.02 61.64,-123.12 14.11,-153.55 63.13,-541.05 180.27,-744.42zm405.53 386.71c-20.37,-21.05 5.53,-88.61 -4.27,-132.9 -2.01,-9.14 -15.57,-24.08 -33.81,-33.71 -45.21,-23.96 -81.14,-65.26 30.64,-84.53 112.57,-19.37 296.42,-14.53 401.47,37.87 62.08,30.9 122.98,73.5 209.82,101.72 67.06,21.86 117.43,47.48 173.21,-2.75 51.17,-46.09 85.26,-133.4 128.23,-135.75 42.14,-2.33 -8.64,106.71 -30.59,149.41 -60.67,117.97 -55.12,194.54 -229.75,269.76 -135.32,58.24 -131.17,-9.28 -107.7,-21.46 28.78,-14.92 41.19,-26.24 57.44,-43.94 21.07,-22.93 29.74,-57.73 10.13,-78.49 -28.31,-29.99 -70.44,-56.88 -117.62,-68.76 -11.81,-3 -19.36,4.78 -19.71,13.74 -6.97,159.01 -147.11,180.72 -204.82,116.79 -37.4,-41.64 -37.1,-104.31 5.86,-121.64 18.8,-7.54 35.26,24.87 43.8,15.62 27.56,-29.79 19.72,-60.55 -30.15,-66.36 -67.08,-7.83 -195,15.04 -222.84,25.4 -33.81,12.53 -26.23,48.56 -5.69,60.21 36.2,20.53 13.7,26.24 -2.89,25.52 -13.3,-0.56 -37.74,-12.34 -50.76,-25.75zm254.15 2405.39c-487.84,-185.79 -919.72,-338.15 -1342.45,-597.57 -41.06,-25.21 -38.55,-70.86 8.75,-50.53 427.93,184.22 870.37,334.94 1337.41,428.25 49.96,10.02 53.36,45.41 59.27,75.21 65.03,325.62 97.11,605.37 172.46,933.82 3.79,16.48 11.27,50.38 -41.38,42.5 -180.89,-27.28 -342.01,-40.93 -508.34,-117.22 -36.89,-16.88 -38.77,-46.04 -3.39,-43.04 147.09,12.37 282.04,-69.68 429.04,-81.73 31.31,-2.54 19.4,-32.56 -8.83,-42.11 -163.64,-55.16 -309.22,-50.92 -463.01,-145.41 -33.11,-20.27 -38.86,-49.9 -7.01,-45.65 145.26,19.63 277.22,-51.87 417.69,-61.8 27.66,-1.89 24.58,-29.32 -3.79,-36.8 -167.57,-44.15 -316.63,-36.98 -474.51,-130.3 -26.25,-15.45 -22.31,-52.11 4.88,-46.43 143.14,30.1 276.28,-30.5 429.28,-39.49 36.33,-2.12 25.3,-29.79 -6.07,-41.7zm1588.8 -94.79c205.4,-82.15 317.45,-214.87 209.87,-177.79 -57.97,20.01 -143.09,53.09 -197.08,71.13 -45.92,15.31 -63.63,12.98 -86.62,55.35 -169.74,312.45 -228.83,495.61 -410.13,810.03 -100.39,175.77 121.94,-64.35 211.29,-103.81 143.67,-63.41 257.89,-134.65 28.69,-92.05 -117.4,21.78 -49.28,-56.47 56.79,-114.07 108.66,-59.04 212,-83.74 36.66,-93.21 -52.82,-2.82 7.82,-116.8 34.23,-125.6 118.08,-39.52 295.46,-93.8 47.55,-90.79 -35.42,0.44 35.74,-126.03 68.75,-139.19zm-510.84 -5088.97c401.22,0 679.28,278.99 643.83,659.59 -35.45,380.62 -337.14,718.85 -738.34,718.85 -401.2,0 -696.96,-308.61 -696.96,-689.22 0,-380.61 390.27,-689.22 791.47,-689.22zm-263.49 189.35c-22.83,4.45 -13.35,28.2 0.2,29.95l124.43 16.16c13.74,1.78 -35.51,19.46 -40.73,40.44l-203.1 802.3c-4.18,16.99 -16.04,34.01 -28.97,45.44l-41.33 36.28c-34.8,30.59 29.16,33.95 47.76,34.54l630.4 19.4c28.71,0.95 49.05,-0.9 58.88,-35.04l73.2 -255.13c8.7,-30.3 -8.69,-21.55 -31.25,-6.56 -12.75,8.34 -42.07,26.71 -58.3,26.81l-343.93 5.36c-16.33,0.18 44.81,-15.8 49.26,-32.64l203.54 -779.7c5.17,-19.94 -2.55,-33.44 -38.13,-26.56l-401.93 78.95z"></path> </g> <path class="fil3" d="M4470.41 75.86c1234.42,0 2352.05,500.38 3161.04,1309.37 808.99,808.99 1309.36,1926.61 1309.36,3161.04 0,1234.43 -500.37,2352.05 -1309.36,3161.04 -808.99,808.99 -1926.62,1309.39 -3161.04,1309.39 -1234.43,0 -2352.05,-500.4 -3161.05,-1309.39 -808.99,-808.99 -1309.36,-1926.61 -1309.36,-3161.04 0,-1234.43 500.37,-2352.05 1309.36,-3161.04 809,-808.99 1926.62,-1309.37 3161.05,-1309.37zm2830.62 1639.78c-724.38,-724.37 -1725.17,-1172.45 -2830.62,-1172.45 -1105.43,0 -2106.23,448.06 -2830.63,1172.45 -724.38,724.38 -1172.46,1725.18 -1172.46,2830.63 0,1105.43 448.06,2106.23 1172.46,2830.63 724.4,724.39 1725.2,1172.45 2830.63,1172.45 1105.45,0 2106.24,-448.07 2830.62,-1172.45 724.4,-724.4 1172.46,-1725.2 1172.46,-2830.63 0,-1105.45 -448.08,-2106.25 -1172.46,-2830.63z"></path> <g id="_3120203797744"> <path class="fil4" d="M10518.84 1600.06c0,-114.88 25.85,-214.16 77.54,-297.86 51.7,-83.69 119.39,-148.11 203.09,-193.24 83.69,-45.13 174.77,-67.69 273.24,-67.69 82.05,0 155.08,10.67 219.08,32 64.01,21.33 121.85,50.05 173.55,86.16 51.69,36.1 96.41,75.49 134.16,118.16l0 -396.33c-70.57,-55.79 -147.29,-99.28 -230.17,-130.46 -82.87,-31.18 -187.49,-46.77 -313.85,-46.77 -131.29,0 -253.14,21.33 -365.56,64 -112.41,42.67 -210.05,104.21 -292.93,184.62 -82.87,80.41 -146.88,175.19 -192.01,284.32 -45.13,109.13 -67.69,230.16 -67.69,363.09 0,132.93 22.56,253.96 67.69,363.09 45.13,109.13 109.14,203.9 192.01,284.32 82.88,80.41 180.52,141.95 292.93,184.62 112.42,42.67 234.27,64 365.56,64 126.36,0 230.98,-15.59 313.85,-46.77 82.88,-31.18 159.6,-74.67 230.17,-130.46l0 -396.33c-37.75,42.67 -82.47,82.06 -134.16,118.16 -51.7,36.11 -109.54,64.82 -173.55,86.16 -64,21.33 -137.03,32 -219.08,32 -98.47,0 -189.55,-22.57 -273.24,-67.7 -83.7,-45.13 -151.39,-109.95 -203.09,-194.46 -51.69,-84.52 -77.54,-183.4 -77.54,-296.63z"></path> <path id="_1" class="fil4" d="M12854.28 2070.23l910.81 0 -41.85 -278.16 -827.11 0 -41.85 278.16zm450.48 -772.95l258.47 598.18 -4.92 88.61 221.54 477.56 398.79 0 -873.88 -1824.07 -873.88 1824.07 396.32 0 226.47 -492.33 -7.38 -78.77 258.47 -593.25z"></path> <path id="_2" class="fil4" d="M15069.1 738.49l0 1723.14 352.02 0 0 -1723.14 -352.02 0zm214.17 297.86l342.16 0c93.54,0 167.39,20.92 221.55,62.77 54.15,41.85 81.23,104.62 81.23,188.31 0,82.06 -27.08,144.42 -81.23,187.09 -54.16,42.66 -128.01,64 -221.55,64l-342.16 0 0 297.86 342.16 0c136.21,0 252.32,-22.16 348.32,-66.47 96.01,-44.31 169.45,-107.9 220.32,-190.77 50.87,-82.88 76.31,-180.11 76.31,-291.71 0,-113.23 -25.44,-210.88 -76.31,-292.93 -50.87,-82.06 -124.31,-145.24 -220.32,-189.55 -96,-44.31 -212.11,-66.46 -348.32,-66.46l-342.16 0 0 297.86z"></path> <polygon id="_3" class="fil4" points="17247,738.49 17247,2461.63 17603.94,2461.63 17603.94,738.49 "></polygon> <polygon id="_4" class="fil4" points="18506.71,1056.04 18969.5,1056.04 18969.5,2461.63 19321.51,2461.63 19321.51,1056.04 19786.76,1056.04 19786.76,738.49 18506.71,738.49 "></polygon> <polygon id="_5" class="fil4" points="24369.03,738.49 24369.03,1806.84 23143.13,652.33 23143.13,2461.63 23482.84,2461.63 23482.84,1393.28 24708.73,2547.79 24708.73,738.49 "></polygon> <path id="_6" class="fil4" d="M20928.31 2070.23l910.81 0 -41.85 -278.16 -827.11 0 -41.85 278.16zm450.48 -772.95l258.47 598.18 -4.92 88.61 221.54 477.56 398.79 0 -873.88 -1824.07 -873.88 1824.07 396.32 0 226.47 -492.33 -7.38 -78.77 258.47 -593.25zm366.78 -1176.66l-253.54 -120.62 -369.25 393.86 179.7 96 443.09 -369.24z"></path> <path class="fil5" d="M11131.07 3237.24l-993.78 -266.28 0 5427.43 3266.73 0 -266.28 -993.78 -2006.67 0 0 -4167.37zm4602.27 -322.89c1530.01,0 2770.32,1240.31 2770.32,2770.32 0,1530.01 -1240.31,2770.32 -2770.32,2770.32 -1530.01,0 -2770.32,-1240.31 -2770.32,-2770.32 0,-1530.01 1240.31,-2770.32 2770.32,-2770.32zm0 993.8c981.15,0 1776.52,795.37 1776.52,1776.52 0,981.15 -795.37,1776.52 -1776.52,1776.52 -981.15,0 -1776.52,-795.37 -1776.52,-1776.52 0,-981.15 795.37,-1776.52 1776.52,-1776.52zm8604.31 1279.77l0.03 0c29.87,163.89 44.9,330.15 44.9,496.75 0,1530.01 -1240.31,2770.32 -2770.32,2770.32 -1530.01,0 -2770.32,-1240.31 -2770.32,-2770.32 0,-1530.01 1240.31,-2770.32 2770.32,-2770.32 734.74,0 1439.37,291.88 1958.92,811.4l-702.73 702.73c-321.47,-321.49 -765.62,-520.33 -1256.19,-520.33 -981.15,0 -1776.52,795.37 -1776.52,1776.52 0,981.15 795.37,1776.52 1776.52,1776.52 808.66,0 1491.02,-540.34 1705.99,-1279.63l-1546.49 0 -266.28 -993.78 2832.2 0 -0.03 0.14zm3153.53 -2273.57c1530.01,0 2770.32,1240.31 2770.32,2770.32 0,1530.01 -1240.31,2770.32 -2770.32,2770.32 -1530.01,0 -2770.32,-1240.31 -2770.32,-2770.32 0,-1530.01 1240.31,-2770.32 2770.32,-2770.32zm0 993.8c981.15,0 1776.52,795.37 1776.52,1776.52 0,981.15 -795.37,1776.52 -1776.52,1776.52 -981.15,0 -1776.52,-795.37 -1776.52,-1776.52 0,-981.15 795.37,-1776.52 1776.52,-1776.52z"></path> </g> </g> </g> </svg> 