<?xml version="1.0" encoding="UTF-8" standalone="no"?>
<svg xmlns="http://www.w3.org/2000/svg" xmlns:xlink="http://www.w3.org/1999/xlink" xmlns:serif="http://www.serif.com/" width="100%" height="100%" viewBox="0 0 39 42" version="1.1" xml:space="preserve" style="fill-rule:evenodd;clip-rule:evenodd;stroke-linejoin:round;stroke-miterlimit:2;">
    <g transform="matrix(1,0,0,1,-189.077,-1931.05)">
        <g transform="matrix(0.12,0,0,0.116206,0,0)">
            <g transform="matrix(1.11975,0,0,1.1563,1563.12,16617.4)">
                <path d="M281.305,232.004C291.708,243.632 312.517,269.948 291.097,282.188C268.452,295.652 240.301,275.456 222.553,261.992C200.521,245.468 181.549,226.496 163.189,206.3C139.321,237.513 114.841,270.561 84.853,293.817C65.881,309.116 40.789,321.357 21.205,300.548C10.801,289.532 16.921,269.948 28.549,261.38C28.549,259.544 28.549,258.321 29.773,257.097C57.925,221.601 83.629,183.044 111.781,146.325C89.749,120.009 67.105,94.917 40.177,73.497C37.729,74.109 35.281,73.497 33.445,71.661C16.921,55.749 -0.215,25.149 21.205,6.177C43.236,-14.631 82.404,22.701 97.094,36.165C117.29,55.137 135.65,75.333 153.398,96.141C169.31,78.393 187.058,61.257 206.03,45.957C224.39,31.269 247.034,14.745 270.902,26.985C293.546,38.613 279.47,69.825 267.842,82.677C246.422,107.157 224.39,131.637 203.581,156.116C206.029,158.564 207.865,161.013 210.313,163.46C232.345,187.941 259.885,206.912 281.305,232.004ZM180.324,93.081L180.324,91.857C176.652,95.529 172.98,99.813 169.308,103.485C171.144,102.261 173.592,100.425 175.428,99.201C177.264,97.365 178.488,94.917 180.324,93.081ZM117.289,89.409C119.125,91.245 120.96,93.081 122.797,94.305C117.901,88.185 113.005,81.453 108.109,75.333L108.109,75.945C110.557,79.617 113.617,83.289 116.065,86.349C116.677,86.961 117.289,88.185 117.289,89.409Z" style="fill:rgb(242,51,13);"></path>
            </g>
        </g>
    </g>
</svg>
